<?xml version="1.0"?>
<!-- Created by MetaPost 2.00 on 2018.09.04:1743 -->
<svg version="1.1" xmlns="http://www.w3.org/2000/svg" xmlns:xlink="http://www.w3.org/1999/xlink" width="250.500000" height="175.500000" viewBox="0 0 250.500000 175.500000">
<!-- Original BoundingBox: -0.250000 -0.250000 250.250000 175.250000 -->
  <defs>
    <g transform="scale(0.009963,0.009963)" id="GLYPHcmr10_32">
      <path style="fill-rule: evenodd;" d="M262.000000 -363.000000L251.000000 -392.000000L27.000000 -310.000000L37.000000 -280.000000"></path>
    </g>
    <g transform="scale(0.009963,0.009963)" id="GLYPHcmr10_40">
      <path style="fill-rule: evenodd;" d="M331.000000 240.000000C331.000000 237.000000,331.000000 235.000000,314.000000 218.000000C189.000000 92.000000,157.000000 -97.000000,157.000000 -250.000000C157.000000 -424.000000,195.000000 -598.000000,318.000000 -723.000000C331.000000 -735.000000,331.000000 -737.000000,331.000000 -740.000000C331.000000 -747.000000,327.000000 -750.000000,321.000000 -750.000000C311.000000 -750.000000,221.000000 -682.000000,162.000000 -555.000000C111.000000 -445.000000,99.000000 -334.000000,99.000000 -250.000000C99.000000 -172.000000,110.000000 -51.000000,165.000000 62.000000C225.000000 185.000000,311.000000 250.000000,321.000000 250.000000C327.000000 250.000000,331.000000 247.000000,331.000000 240.000000"></path>
    </g>
    <g transform="scale(0.009963,0.009963)" id="GLYPHcmr10_41">
      <path style="fill-rule: evenodd;" d="M289.000000 -250.000000C289.000000 -328.000000,278.000000 -449.000000,223.000000 -562.000000C163.000000 -685.000000,77.000000 -750.000000,67.000000 -750.000000C61.000000 -750.000000,57.000000 -746.000000,57.000000 -740.000000C57.000000 -737.000000,57.000000 -735.000000,76.000000 -717.000000C174.000000 -618.000000,231.000000 -459.000000,231.000000 -250.000000C231.000000 -79.000000,194.000000 97.000000,70.000000 223.000000C57.000000 235.000000,57.000000 237.000000,57.000000 240.000000C57.000000 246.000000,61.000000 250.000000,67.000000 250.000000C77.000000 250.000000,167.000000 182.000000,226.000000 55.000000C277.000000 -55.000000,289.000000 -166.000000,289.000000 -250.000000"></path>
    </g>
    <g transform="scale(0.009963,0.009963)" id="GLYPHcmr10_44">
      <path style="fill-rule: evenodd;" d="M203.000000 -1.000000C203.000000 -65.000000,179.000000 -106.000000,139.000000 -106.000000C104.000000 -106.000000,86.000000 -79.000000,86.000000 -53.000000C86.000000 -27.000000,103.000000 -0.000000,139.000000 -0.000000C155.000000 -0.000000,167.000000 -6.000000,177.000000 -14.000000L179.000000 -16.000000C180.000000 -16.000000,181.000000 -15.000000,181.000000 -1.000000C181.000000 63.000000,153.000000 124.000000,109.000000 171.000000C103.000000 177.000000,102.000000 178.000000,102.000000 182.000000C102.000000 189.000000,107.000000 193.000000,112.000000 193.000000C124.000000 193.000000,203.000000 114.000000,203.000000 -1.000000"></path>
    </g>
    <g transform="scale(0.009963,0.009963)" id="GLYPHcmr10_45">
      <path style="fill-rule: evenodd;" d="M276.000000 -187.000000L276.000000 -245.000000L11.000000 -245.000000L11.000000 -187.000000"></path>
    </g>
    <g transform="scale(0.009963,0.009963)" id="GLYPHcmr10_48">
      <path style="fill-rule: evenodd;" d="M460.000000 -320.000000C460.000000 -400.000000,455.000000 -480.000000,420.000000 -554.000000C374.000000 -650.000000,292.000000 -666.000000,250.000000 -666.000000C190.000000 -666.000000,117.000000 -640.000000,76.000000 -547.000000C44.000000 -478.000000,39.000000 -400.000000,39.000000 -320.000000C39.000000 -245.000000,43.000000 -155.000000,84.000000 -79.000000C127.000000 2.000000,200.000000 22.000000,249.000000 22.000000C303.000000 22.000000,379.000000 1.000000,423.000000 -94.000000C455.000000 -163.000000,460.000000 -241.000000,460.000000 -320.000000M249.000000 -0.000000C210.000000 -0.000000,151.000000 -25.000000,133.000000 -121.000000C122.000000 -181.000000,122.000000 -273.000000,122.000000 -332.000000C122.000000 -396.000000,122.000000 -462.000000,130.000000 -516.000000C149.000000 -635.000000,224.000000 -644.000000,249.000000 -644.000000C282.000000 -644.000000,348.000000 -626.000000,367.000000 -527.000000C377.000000 -471.000000,377.000000 -395.000000,377.000000 -332.000000C377.000000 -257.000000,377.000000 -189.000000,366.000000 -125.000000C351.000000 -30.000000,294.000000 -0.000000,249.000000 -0.000000"></path>
    </g>
    <g transform="scale(0.009963,0.009963)" id="GLYPHcmr10_49">
      <path style="fill-rule: evenodd;" d="M294.000000 -640.000000C294.000000 -664.000000,294.000000 -666.000000,271.000000 -666.000000C209.000000 -602.000000,121.000000 -602.000000,89.000000 -602.000000L89.000000 -571.000000C109.000000 -571.000000,168.000000 -571.000000,220.000000 -597.000000L220.000000 -79.000000C220.000000 -43.000000,217.000000 -31.000000,127.000000 -31.000000L95.000000 -31.000000L95.000000 -0.000000C130.000000 -3.000000,217.000000 -3.000000,257.000000 -3.000000C297.000000 -3.000000,384.000000 -3.000000,419.000000 -0.000000L419.000000 -31.000000L387.000000 -31.000000C297.000000 -31.000000,294.000000 -42.000000,294.000000 -79.000000"></path>
    </g>
    <g transform="scale(0.009963,0.009963)" id="GLYPHcmr10_50">
      <path style="fill-rule: evenodd;" d="M127.000000 -77.000000L233.000000 -180.000000C389.000000 -318.000000,449.000000 -372.000000,449.000000 -472.000000C449.000000 -586.000000,359.000000 -666.000000,237.000000 -666.000000C124.000000 -666.000000,50.000000 -574.000000,50.000000 -485.000000C50.000000 -429.000000,100.000000 -429.000000,103.000000 -429.000000C120.000000 -429.000000,155.000000 -441.000000,155.000000 -482.000000C155.000000 -508.000000,137.000000 -534.000000,102.000000 -534.000000C94.000000 -534.000000,92.000000 -534.000000,89.000000 -533.000000C112.000000 -598.000000,166.000000 -635.000000,224.000000 -635.000000C315.000000 -635.000000,358.000000 -554.000000,358.000000 -472.000000C358.000000 -392.000000,308.000000 -313.000000,253.000000 -251.000000L61.000000 -37.000000C50.000000 -26.000000,50.000000 -24.000000,50.000000 -0.000000L421.000000 -0.000000L449.000000 -174.000000L424.000000 -174.000000C419.000000 -144.000000,412.000000 -100.000000,402.000000 -85.000000C395.000000 -77.000000,329.000000 -77.000000,307.000000 -77.000000"></path>
    </g>
    <g transform="scale(0.009963,0.009963)" id="GLYPHcmr10_51">
      <path style="fill-rule: evenodd;" d="M290.000000 -352.000000C372.000000 -379.000000,430.000000 -449.000000,430.000000 -528.000000C430.000000 -610.000000,342.000000 -666.000000,246.000000 -666.000000C145.000000 -666.000000,69.000000 -606.000000,69.000000 -530.000000C69.000000 -497.000000,91.000000 -478.000000,120.000000 -478.000000C151.000000 -478.000000,171.000000 -500.000000,171.000000 -529.000000C171.000000 -579.000000,124.000000 -579.000000,109.000000 -579.000000C140.000000 -628.000000,206.000000 -641.000000,242.000000 -641.000000C283.000000 -641.000000,338.000000 -619.000000,338.000000 -529.000000C338.000000 -517.000000,336.000000 -459.000000,310.000000 -415.000000C280.000000 -367.000000,246.000000 -364.000000,221.000000 -363.000000C213.000000 -362.000000,189.000000 -360.000000,182.000000 -360.000000C174.000000 -359.000000,167.000000 -358.000000,167.000000 -348.000000C167.000000 -337.000000,174.000000 -337.000000,191.000000 -337.000000L235.000000 -337.000000C317.000000 -337.000000,354.000000 -269.000000,354.000000 -171.000000C354.000000 -35.000000,285.000000 -6.000000,241.000000 -6.000000C198.000000 -6.000000,123.000000 -23.000000,88.000000 -82.000000C123.000000 -77.000000,154.000000 -99.000000,154.000000 -137.000000C154.000000 -173.000000,127.000000 -193.000000,98.000000 -193.000000C74.000000 -193.000000,42.000000 -179.000000,42.000000 -135.000000C42.000000 -44.000000,135.000000 22.000000,244.000000 22.000000C366.000000 22.000000,457.000000 -69.000000,457.000000 -171.000000C457.000000 -253.000000,394.000000 -331.000000,290.000000 -352.000000"></path>
    </g>
    <g transform="scale(0.009963,0.009963)" id="GLYPHcmr10_52">
      <path style="fill-rule: evenodd;" d="M294.000000 -165.000000L294.000000 -78.000000C294.000000 -42.000000,292.000000 -31.000000,218.000000 -31.000000L197.000000 -31.000000L197.000000 -0.000000C238.000000 -3.000000,290.000000 -3.000000,332.000000 -3.000000C374.000000 -3.000000,427.000000 -3.000000,468.000000 -0.000000L468.000000 -31.000000L447.000000 -31.000000C373.000000 -31.000000,371.000000 -42.000000,371.000000 -78.000000L371.000000 -165.000000L471.000000 -165.000000L471.000000 -196.000000L371.000000 -196.000000L371.000000 -651.000000C371.000000 -671.000000,371.000000 -677.000000,355.000000 -677.000000C346.000000 -677.000000,343.000000 -677.000000,335.000000 -665.000000L28.000000 -196.000000L28.000000 -165.000000M300.000000 -196.000000L56.000000 -196.000000L300.000000 -569.000000"></path>
    </g>
    <g transform="scale(0.009963,0.009963)" id="GLYPHcmr10_53">
      <path style="fill-rule: evenodd;" d="M449.000000 -201.000000C449.000000 -320.000000,367.000000 -420.000000,259.000000 -420.000000C211.000000 -420.000000,168.000000 -404.000000,132.000000 -369.000000L132.000000 -564.000000C152.000000 -558.000000,185.000000 -551.000000,217.000000 -551.000000C340.000000 -551.000000,410.000000 -642.000000,410.000000 -655.000000C410.000000 -661.000000,407.000000 -666.000000,400.000000 -666.000000C399.000000 -666.000000,397.000000 -666.000000,392.000000 -663.000000C372.000000 -654.000000,323.000000 -634.000000,256.000000 -634.000000C216.000000 -634.000000,170.000000 -641.000000,123.000000 -662.000000C115.000000 -665.000000,113.000000 -665.000000,111.000000 -665.000000C101.000000 -665.000000,101.000000 -657.000000,101.000000 -641.000000L101.000000 -345.000000C101.000000 -327.000000,101.000000 -319.000000,115.000000 -319.000000C122.000000 -319.000000,124.000000 -322.000000,128.000000 -328.000000C139.000000 -344.000000,176.000000 -398.000000,257.000000 -398.000000C309.000000 -398.000000,334.000000 -352.000000,342.000000 -334.000000C358.000000 -297.000000,360.000000 -258.000000,360.000000 -208.000000C360.000000 -173.000000,360.000000 -113.000000,336.000000 -71.000000C312.000000 -32.000000,275.000000 -6.000000,229.000000 -6.000000C156.000000 -6.000000,99.000000 -59.000000,82.000000 -118.000000C85.000000 -117.000000,88.000000 -116.000000,99.000000 -116.000000C132.000000 -116.000000,149.000000 -141.000000,149.000000 -165.000000C149.000000 -189.000000,132.000000 -214.000000,99.000000 -214.000000C85.000000 -214.000000,50.000000 -207.000000,50.000000 -161.000000C50.000000 -75.000000,119.000000 22.000000,231.000000 22.000000C347.000000 22.000000,449.000000 -74.000000,449.000000 -201.000000"></path>
    </g>
    <g transform="scale(0.009963,0.009963)" id="GLYPHcmr10_54">
      <path style="fill-rule: evenodd;" d="M132.000000 -328.000000L132.000000 -352.000000C132.000000 -605.000000,256.000000 -641.000000,307.000000 -641.000000C331.000000 -641.000000,373.000000 -635.000000,395.000000 -601.000000C380.000000 -601.000000,340.000000 -601.000000,340.000000 -556.000000C340.000000 -525.000000,364.000000 -510.000000,386.000000 -510.000000C402.000000 -510.000000,432.000000 -519.000000,432.000000 -558.000000C432.000000 -618.000000,388.000000 -666.000000,305.000000 -666.000000C177.000000 -666.000000,42.000000 -537.000000,42.000000 -316.000000C42.000000 -49.000000,158.000000 22.000000,251.000000 22.000000C362.000000 22.000000,457.000000 -72.000000,457.000000 -204.000000C457.000000 -331.000000,368.000000 -427.000000,257.000000 -427.000000C189.000000 -427.000000,152.000000 -376.000000,132.000000 -328.000000M251.000000 -6.000000C188.000000 -6.000000,158.000000 -66.000000,152.000000 -81.000000C134.000000 -128.000000,134.000000 -208.000000,134.000000 -226.000000C134.000000 -304.000000,166.000000 -404.000000,256.000000 -404.000000C272.000000 -404.000000,318.000000 -404.000000,349.000000 -342.000000C367.000000 -305.000000,367.000000 -254.000000,367.000000 -205.000000C367.000000 -157.000000,367.000000 -107.000000,350.000000 -71.000000C320.000000 -11.000000,274.000000 -6.000000,251.000000 -6.000000"></path>
    </g>
    <g transform="scale(0.009963,0.009963)" id="GLYPHcmr10_55">
      <path style="fill-rule: evenodd;" d="M476.000000 -609.000000C485.000000 -621.000000,485.000000 -623.000000,485.000000 -644.000000L242.000000 -644.000000C120.000000 -644.000000,118.000000 -657.000000,114.000000 -676.000000L89.000000 -676.000000L56.000000 -470.000000L81.000000 -470.000000C84.000000 -486.000000,93.000000 -549.000000,106.000000 -561.000000C113.000000 -567.000000,191.000000 -567.000000,204.000000 -567.000000L411.000000 -567.000000C400.000000 -551.000000,321.000000 -442.000000,299.000000 -409.000000C209.000000 -274.000000,176.000000 -135.000000,176.000000 -33.000000C176.000000 -23.000000,176.000000 22.000000,222.000000 22.000000C268.000000 22.000000,268.000000 -23.000000,268.000000 -33.000000L268.000000 -84.000000C268.000000 -139.000000,271.000000 -194.000000,279.000000 -248.000000C283.000000 -271.000000,297.000000 -357.000000,341.000000 -419.000000"></path>
    </g>
    <g transform="scale(0.009963,0.009963)" id="GLYPHcmr10_56">
      <path style="fill-rule: evenodd;" d="M163.000000 -457.000000C117.000000 -487.000000,113.000000 -521.000000,113.000000 -538.000000C113.000000 -599.000000,178.000000 -641.000000,249.000000 -641.000000C322.000000 -641.000000,386.000000 -589.000000,386.000000 -517.000000C386.000000 -460.000000,347.000000 -412.000000,287.000000 -377.000000M309.000000 -362.000000C381.000000 -399.000000,430.000000 -451.000000,430.000000 -517.000000C430.000000 -609.000000,341.000000 -666.000000,250.000000 -666.000000C150.000000 -666.000000,69.000000 -592.000000,69.000000 -499.000000C69.000000 -481.000000,71.000000 -436.000000,113.000000 -389.000000C124.000000 -377.000000,161.000000 -352.000000,186.000000 -335.000000C128.000000 -306.000000,42.000000 -250.000000,42.000000 -151.000000C42.000000 -45.000000,144.000000 22.000000,249.000000 22.000000C362.000000 22.000000,457.000000 -61.000000,457.000000 -168.000000C457.000000 -204.000000,446.000000 -249.000000,408.000000 -291.000000C389.000000 -312.000000,373.000000 -322.000000,309.000000 -362.000000M209.000000 -320.000000L332.000000 -242.000000C360.000000 -223.000000,407.000000 -193.000000,407.000000 -132.000000C407.000000 -58.000000,332.000000 -6.000000,250.000000 -6.000000C164.000000 -6.000000,92.000000 -68.000000,92.000000 -151.000000C92.000000 -209.000000,124.000000 -273.000000,209.000000 -320.000000"></path>
    </g>
    <g transform="scale(0.009963,0.009963)" id="GLYPHcmr10_61">
      <path style="fill-rule: evenodd;" d="M687.000000 -327.000000C702.000000 -327.000000,721.000000 -327.000000,721.000000 -347.000000C721.000000 -367.000000,702.000000 -367.000000,688.000000 -367.000000L89.000000 -367.000000C75.000000 -367.000000,56.000000 -367.000000,56.000000 -347.000000C56.000000 -327.000000,75.000000 -327.000000,90.000000 -327.000000M688.000000 -133.000000C702.000000 -133.000000,721.000000 -133.000000,721.000000 -153.000000C721.000000 -173.000000,702.000000 -173.000000,687.000000 -173.000000L90.000000 -173.000000C75.000000 -173.000000,56.000000 -173.000000,56.000000 -153.000000C56.000000 -133.000000,75.000000 -133.000000,89.000000 -133.000000"></path>
    </g>
    <g transform="scale(0.009963,0.009963)" id="GLYPHcmr10_97">
      <path style="fill-rule: evenodd;" d="M333.000000 -76.000000C337.000000 -36.000000,364.000000 6.000000,411.000000 6.000000C432.000000 6.000000,493.000000 -8.000000,493.000000 -89.000000L493.000000 -145.000000L468.000000 -145.000000L468.000000 -89.000000C468.000000 -31.000000,443.000000 -25.000000,432.000000 -25.000000C399.000000 -25.000000,395.000000 -70.000000,395.000000 -75.000000L395.000000 -275.000000C395.000000 -317.000000,395.000000 -356.000000,359.000000 -393.000000C320.000000 -432.000000,270.000000 -448.000000,222.000000 -448.000000C140.000000 -448.000000,71.000000 -401.000000,71.000000 -335.000000C71.000000 -305.000000,91.000000 -288.000000,117.000000 -288.000000C145.000000 -288.000000,163.000000 -308.000000,163.000000 -334.000000C163.000000 -346.000000,158.000000 -379.000000,112.000000 -380.000000C139.000000 -415.000000,188.000000 -426.000000,220.000000 -426.000000C269.000000 -426.000000,326.000000 -387.000000,326.000000 -298.000000L326.000000 -261.000000C275.000000 -258.000000,205.000000 -255.000000,142.000000 -225.000000C67.000000 -191.000000,42.000000 -139.000000,42.000000 -95.000000C42.000000 -14.000000,139.000000 11.000000,202.000000 11.000000C268.000000 11.000000,314.000000 -29.000000,333.000000 -76.000000M326.000000 -240.000000L326.000000 -140.000000C326.000000 -45.000000,254.000000 -11.000000,209.000000 -11.000000C160.000000 -11.000000,119.000000 -46.000000,119.000000 -96.000000C119.000000 -151.000000,161.000000 -234.000000,326.000000 -240.000000"></path>
    </g>
    <g transform="scale(0.009963,0.009963)" id="GLYPHcmr10_98">
      <path style="fill-rule: evenodd;" d="M172.000000 -377.000000L172.000000 -694.000000L28.000000 -683.000000L28.000000 -652.000000C98.000000 -652.000000,106.000000 -645.000000,106.000000 -596.000000L106.000000 -0.000000L131.000000 -0.000000C132.000000 -1.000000,140.000000 -15.000000,167.000000 -62.000000C182.000000 -39.000000,224.000000 11.000000,298.000000 11.000000C417.000000 11.000000,521.000000 -87.000000,521.000000 -216.000000C521.000000 -343.000000,423.000000 -442.000000,309.000000 -442.000000C231.000000 -442.000000,188.000000 -395.000000,172.000000 -377.000000M175.000000 -114.000000L175.000000 -320.000000C175.000000 -339.000000,175.000000 -340.000000,186.000000 -356.000000C225.000000 -412.000000,280.000000 -420.000000,304.000000 -420.000000C349.000000 -420.000000,385.000000 -394.000000,409.000000 -356.000000C435.000000 -315.000000,438.000000 -258.000000,438.000000 -217.000000C438.000000 -180.000000,436.000000 -120.000000,407.000000 -75.000000C386.000000 -44.000000,348.000000 -11.000000,294.000000 -11.000000C249.000000 -11.000000,213.000000 -35.000000,189.000000 -72.000000C175.000000 -93.000000,175.000000 -96.000000,175.000000 -114.000000"></path>
    </g>
    <g transform="scale(0.009963,0.009963)" id="GLYPHcmr10_101">
      <path style="fill-rule: evenodd;" d="M112.000000 -252.000000C118.000000 -401.000000,202.000000 -426.000000,236.000000 -426.000000C339.000000 -426.000000,349.000000 -291.000000,349.000000 -252.000000M111.000000 -231.000000L390.000000 -231.000000C412.000000 -231.000000,415.000000 -231.000000,415.000000 -252.000000C415.000000 -351.000000,361.000000 -448.000000,236.000000 -448.000000C120.000000 -448.000000,28.000000 -345.000000,28.000000 -220.000000C28.000000 -86.000000,133.000000 11.000000,248.000000 11.000000C370.000000 11.000000,415.000000 -100.000000,415.000000 -119.000000C415.000000 -129.000000,407.000000 -131.000000,402.000000 -131.000000C393.000000 -131.000000,391.000000 -125.000000,389.000000 -117.000000C354.000000 -14.000000,264.000000 -14.000000,254.000000 -14.000000C204.000000 -14.000000,164.000000 -44.000000,141.000000 -81.000000C111.000000 -129.000000,111.000000 -195.000000,111.000000 -231.000000"></path>
    </g>
    <g transform="scale(0.009963,0.009963)" id="GLYPHcmr10_102">
      <path style="fill-rule: evenodd;" d="M175.000000 -431.000000L175.000000 -547.000000C175.000000 -635.000000,223.000000 -683.000000,267.000000 -683.000000C270.000000 -683.000000,285.000000 -683.000000,300.000000 -676.000000C288.000000 -672.000000,270.000000 -659.000000,270.000000 -634.000000C270.000000 -611.000000,286.000000 -591.000000,313.000000 -591.000000C342.000000 -591.000000,357.000000 -611.000000,357.000000 -635.000000C357.000000 -672.000000,320.000000 -705.000000,267.000000 -705.000000C197.000000 -705.000000,112.000000 -652.000000,112.000000 -546.000000L112.000000 -431.000000L33.000000 -431.000000L33.000000 -400.000000L112.000000 -400.000000L112.000000 -76.000000C112.000000 -31.000000,101.000000 -31.000000,34.000000 -31.000000L34.000000 -0.000000C73.000000 -1.000000,120.000000 -3.000000,148.000000 -3.000000C188.000000 -3.000000,235.000000 -3.000000,275.000000 -0.000000L275.000000 -31.000000L254.000000 -31.000000C180.000000 -31.000000,178.000000 -42.000000,178.000000 -78.000000L178.000000 -400.000000L292.000000 -400.000000L292.000000 -431.000000"></path>
    </g>
    <g transform="scale(0.009963,0.009963)" id="GLYPHcmr10_103">
      <path style="fill-rule: evenodd;" d="M222.000000 -172.000000C135.000000 -172.000000,135.000000 -272.000000,135.000000 -295.000000C135.000000 -322.000000,136.000000 -354.000000,151.000000 -379.000000C159.000000 -391.000000,182.000000 -419.000000,222.000000 -419.000000C309.000000 -419.000000,309.000000 -319.000000,309.000000 -296.000000C309.000000 -269.000000,308.000000 -237.000000,293.000000 -212.000000C285.000000 -200.000000,262.000000 -172.000000,222.000000 -172.000000M106.000000 -133.000000C106.000000 -137.000000,106.000000 -160.000000,123.000000 -180.000000C162.000000 -152.000000,203.000000 -149.000000,222.000000 -149.000000C315.000000 -149.000000,384.000000 -218.000000,384.000000 -295.000000C384.000000 -332.000000,368.000000 -369.000000,343.000000 -392.000000C379.000000 -426.000000,415.000000 -431.000000,433.000000 -431.000000C435.000000 -431.000000,440.000000 -431.000000,443.000000 -430.000000C432.000000 -426.000000,427.000000 -415.000000,427.000000 -403.000000C427.000000 -386.000000,440.000000 -374.000000,456.000000 -374.000000C466.000000 -374.000000,485.000000 -381.000000,485.000000 -404.000000C485.000000 -421.000000,473.000000 -453.000000,434.000000 -453.000000C414.000000 -453.000000,370.000000 -447.000000,328.000000 -406.000000C286.000000 -439.000000,244.000000 -442.000000,222.000000 -442.000000C129.000000 -442.000000,60.000000 -373.000000,60.000000 -296.000000C60.000000 -252.000000,82.000000 -214.000000,107.000000 -193.000000C94.000000 -178.000000,76.000000 -145.000000,76.000000 -110.000000C76.000000 -79.000000,89.000000 -41.000000,120.000000 -21.000000C60.000000 -4.000000,28.000000 39.000000,28.000000 79.000000C28.000000 151.000000,127.000000 206.000000,249.000000 206.000000C367.000000 206.000000,471.000000 155.000000,471.000000 77.000000C471.000000 42.000000,457.000000 -9.000000,406.000000 -37.000000C353.000000 -65.000000,295.000000 -65.000000,234.000000 -65.000000C209.000000 -65.000000,166.000000 -65.000000,159.000000 -66.000000C127.000000 -70.000000,106.000000 -101.000000,106.000000 -133.000000M250.000000 183.000000C149.000000 183.000000,80.000000 132.000000,80.000000 79.000000C80.000000 33.000000,118.000000 -4.000000,162.000000 -7.000000L221.000000 -7.000000C307.000000 -7.000000,419.000000 -7.000000,419.000000 79.000000C419.000000 133.000000,348.000000 183.000000,250.000000 183.000000"></path>
    </g>
    <g transform="scale(0.009963,0.009963)" id="GLYPHcmr10_104">
      <path style="fill-rule: evenodd;" d="M110.000000 -76.000000C110.000000 -31.000000,99.000000 -31.000000,32.000000 -31.000000L32.000000 -0.000000C67.000000 -1.000000,118.000000 -3.000000,145.000000 -3.000000C171.000000 -3.000000,223.000000 -1.000000,257.000000 -0.000000L257.000000 -31.000000C190.000000 -31.000000,179.000000 -31.000000,179.000000 -76.000000L179.000000 -260.000000C179.000000 -364.000000,250.000000 -420.000000,314.000000 -420.000000C377.000000 -420.000000,388.000000 -366.000000,388.000000 -309.000000L388.000000 -76.000000C388.000000 -31.000000,377.000000 -31.000000,310.000000 -31.000000L310.000000 -0.000000C345.000000 -1.000000,396.000000 -3.000000,423.000000 -3.000000C449.000000 -3.000000,501.000000 -1.000000,535.000000 -0.000000L535.000000 -31.000000C483.000000 -31.000000,458.000000 -31.000000,457.000000 -61.000000L457.000000 -252.000000C457.000000 -338.000000,457.000000 -369.000000,426.000000 -405.000000C412.000000 -422.000000,379.000000 -442.000000,321.000000 -442.000000C237.000000 -442.000000,193.000000 -382.000000,176.000000 -344.000000L176.000000 -694.000000L32.000000 -683.000000L32.000000 -652.000000C102.000000 -652.000000,110.000000 -645.000000,110.000000 -596.000000"></path>
    </g>
    <g transform="scale(0.009963,0.009963)" id="GLYPHcmr10_105">
      <path style="fill-rule: evenodd;" d="M177.000000 -442.000000L37.000000 -431.000000L37.000000 -400.000000C102.000000 -400.000000,111.000000 -394.000000,111.000000 -345.000000L111.000000 -76.000000C111.000000 -31.000000,100.000000 -31.000000,33.000000 -31.000000L33.000000 -0.000000C65.000000 -1.000000,119.000000 -3.000000,143.000000 -3.000000C178.000000 -3.000000,213.000000 -1.000000,247.000000 -0.000000L247.000000 -31.000000C181.000000 -31.000000,177.000000 -36.000000,177.000000 -75.000000M181.000000 -616.000000C181.000000 -648.000000,156.000000 -669.000000,128.000000 -669.000000C97.000000 -669.000000,75.000000 -642.000000,75.000000 -616.000000C75.000000 -589.000000,97.000000 -563.000000,128.000000 -563.000000C156.000000 -563.000000,181.000000 -584.000000,181.000000 -616.000000"></path>
    </g>
    <g transform="scale(0.009963,0.009963)" id="GLYPHcmr10_108">
      <path style="fill-rule: evenodd;" d="M177.000000 -694.000000L33.000000 -683.000000L33.000000 -652.000000C103.000000 -652.000000,111.000000 -645.000000,111.000000 -596.000000L111.000000 -76.000000C111.000000 -31.000000,100.000000 -31.000000,33.000000 -31.000000L33.000000 -0.000000C66.000000 -1.000000,119.000000 -3.000000,144.000000 -3.000000C169.000000 -3.000000,218.000000 -1.000000,255.000000 -0.000000L255.000000 -31.000000C188.000000 -31.000000,177.000000 -31.000000,177.000000 -76.000000"></path>
    </g>
    <g transform="scale(0.009963,0.009963)" id="GLYPHcmr10_110">
      <path style="fill-rule: evenodd;" d="M110.000000 -344.000000L110.000000 -76.000000C110.000000 -31.000000,99.000000 -31.000000,32.000000 -31.000000L32.000000 -0.000000C67.000000 -1.000000,118.000000 -3.000000,145.000000 -3.000000C171.000000 -3.000000,223.000000 -1.000000,257.000000 -0.000000L257.000000 -31.000000C190.000000 -31.000000,179.000000 -31.000000,179.000000 -76.000000L179.000000 -260.000000C179.000000 -364.000000,250.000000 -420.000000,314.000000 -420.000000C377.000000 -420.000000,388.000000 -366.000000,388.000000 -309.000000L388.000000 -76.000000C388.000000 -31.000000,377.000000 -31.000000,310.000000 -31.000000L310.000000 -0.000000C345.000000 -1.000000,396.000000 -3.000000,423.000000 -3.000000C449.000000 -3.000000,501.000000 -1.000000,535.000000 -0.000000L535.000000 -31.000000C483.000000 -31.000000,458.000000 -31.000000,457.000000 -61.000000L457.000000 -252.000000C457.000000 -338.000000,457.000000 -369.000000,426.000000 -405.000000C412.000000 -422.000000,379.000000 -442.000000,321.000000 -442.000000C248.000000 -442.000000,201.000000 -399.000000,173.000000 -337.000000L173.000000 -442.000000L32.000000 -431.000000L32.000000 -400.000000C102.000000 -400.000000,110.000000 -393.000000,110.000000 -344.000000"></path>
    </g>
    <g transform="scale(0.009963,0.009963)" id="GLYPHcmr10_111">
      <path style="fill-rule: evenodd;" d="M471.000000 -214.000000C471.000000 -342.000000,371.000000 -448.000000,250.000000 -448.000000C125.000000 -448.000000,28.000000 -339.000000,28.000000 -214.000000C28.000000 -85.000000,132.000000 11.000000,249.000000 11.000000C370.000000 11.000000,471.000000 -87.000000,471.000000 -214.000000M250.000000 -14.000000C207.000000 -14.000000,163.000000 -35.000000,136.000000 -81.000000C111.000000 -125.000000,111.000000 -186.000000,111.000000 -222.000000C111.000000 -261.000000,111.000000 -315.000000,135.000000 -359.000000C162.000000 -405.000000,209.000000 -426.000000,249.000000 -426.000000C293.000000 -426.000000,336.000000 -404.000000,362.000000 -361.000000C388.000000 -318.000000,388.000000 -260.000000,388.000000 -222.000000C388.000000 -186.000000,388.000000 -132.000000,366.000000 -88.000000C344.000000 -43.000000,300.000000 -14.000000,250.000000 -14.000000"></path>
    </g>
    <g transform="scale(0.009963,0.009963)" id="GLYPHcmr10_112">
      <path style="fill-rule: evenodd;" d="M172.000000 -376.000000L172.000000 -442.000000L28.000000 -431.000000L28.000000 -400.000000C99.000000 -400.000000,106.000000 -394.000000,106.000000 -350.000000L106.000000 118.000000C106.000000 163.000000,95.000000 163.000000,28.000000 163.000000L28.000000 194.000000C62.000000 193.000000,114.000000 191.000000,140.000000 191.000000C167.000000 191.000000,218.000000 193.000000,253.000000 194.000000L253.000000 163.000000C186.000000 163.000000,175.000000 163.000000,175.000000 118.000000L175.000000 -50.000000L175.000000 -59.000000C180.000000 -43.000000,222.000000 11.000000,298.000000 11.000000C417.000000 11.000000,521.000000 -87.000000,521.000000 -216.000000C521.000000 -343.000000,424.000000 -442.000000,312.000000 -442.000000C234.000000 -442.000000,192.000000 -398.000000,172.000000 -376.000000M175.000000 -114.000000L175.000000 -337.000000C204.000000 -388.000000,253.000000 -417.000000,304.000000 -417.000000C377.000000 -417.000000,438.000000 -329.000000,438.000000 -216.000000C438.000000 -95.000000,368.000000 -11.000000,294.000000 -11.000000C254.000000 -11.000000,216.000000 -31.000000,189.000000 -72.000000C175.000000 -93.000000,175.000000 -94.000000,175.000000 -114.000000"></path>
    </g>
    <g transform="scale(0.009963,0.009963)" id="GLYPHcmr10_115">
      <path style="fill-rule: evenodd;" d="M208.000000 -194.000000C230.000000 -190.000000,312.000000 -174.000000,312.000000 -102.000000C312.000000 -51.000000,277.000000 -11.000000,199.000000 -11.000000C115.000000 -11.000000,79.000000 -68.000000,60.000000 -153.000000C57.000000 -166.000000,56.000000 -170.000000,46.000000 -170.000000C33.000000 -170.000000,33.000000 -163.000000,33.000000 -145.000000L33.000000 -13.000000C33.000000 4.000000,33.000000 11.000000,44.000000 11.000000C49.000000 11.000000,50.000000 10.000000,69.000000 -9.000000C71.000000 -11.000000,71.000000 -13.000000,89.000000 -32.000000C133.000000 10.000000,178.000000 11.000000,199.000000 11.000000C314.000000 11.000000,360.000000 -56.000000,360.000000 -128.000000C360.000000 -181.000000,330.000000 -211.000000,318.000000 -223.000000C285.000000 -255.000000,246.000000 -263.000000,204.000000 -271.000000C148.000000 -282.000000,81.000000 -295.000000,81.000000 -353.000000C81.000000 -388.000000,107.000000 -429.000000,193.000000 -429.000000C303.000000 -429.000000,308.000000 -339.000000,310.000000 -308.000000C311.000000 -299.000000,320.000000 -299.000000,322.000000 -299.000000C335.000000 -299.000000,335.000000 -304.000000,335.000000 -323.000000L335.000000 -424.000000C335.000000 -441.000000,335.000000 -448.000000,324.000000 -448.000000C319.000000 -448.000000,317.000000 -448.000000,304.000000 -436.000000C301.000000 -432.000000,291.000000 -423.000000,287.000000 -420.000000C249.000000 -448.000000,208.000000 -448.000000,193.000000 -448.000000C71.000000 -448.000000,33.000000 -381.000000,33.000000 -325.000000C33.000000 -290.000000,49.000000 -262.000000,76.000000 -240.000000C108.000000 -214.000000,136.000000 -208.000000,208.000000 -194.000000"></path>
    </g>
    <g transform="scale(0.009963,0.009963)" id="GLYPHcmr10_116">
      <path style="fill-rule: evenodd;" d="M173.000000 -400.000000L316.000000 -400.000000L316.000000 -431.000000L173.000000 -431.000000L173.000000 -615.000000L148.000000 -615.000000C147.000000 -533.000000,117.000000 -426.000000,19.000000 -422.000000L19.000000 -400.000000L104.000000 -400.000000L104.000000 -124.000000C104.000000 -1.000000,197.000000 11.000000,233.000000 11.000000C304.000000 11.000000,332.000000 -60.000000,332.000000 -124.000000L332.000000 -181.000000L307.000000 -181.000000L307.000000 -126.000000C307.000000 -52.000000,277.000000 -14.000000,240.000000 -14.000000C173.000000 -14.000000,173.000000 -105.000000,173.000000 -122.000000"></path>
    </g>
    <g transform="scale(0.009963,0.009963)" id="GLYPHcmr10_117">
      <path style="fill-rule: evenodd;" d="M391.000000 -79.000000L391.000000 11.000000L535.000000 -0.000000L535.000000 -31.000000C465.000000 -31.000000,457.000000 -38.000000,457.000000 -87.000000L457.000000 -442.000000L310.000000 -431.000000L310.000000 -400.000000C380.000000 -400.000000,388.000000 -393.000000,388.000000 -344.000000L388.000000 -166.000000C388.000000 -79.000000,340.000000 -11.000000,267.000000 -11.000000C183.000000 -11.000000,179.000000 -58.000000,179.000000 -110.000000L179.000000 -442.000000L32.000000 -431.000000L32.000000 -400.000000C110.000000 -400.000000,110.000000 -397.000000,110.000000 -308.000000L110.000000 -158.000000C110.000000 -80.000000,110.000000 11.000000,262.000000 11.000000C318.000000 11.000000,362.000000 -17.000000,391.000000 -79.000000"></path>
    </g>
  </defs>
  <path d="M0.000000 175.000000L250.000000 175.000000L250.000000 -0.000000L0.000000 -0.000000Z" style="stroke:rgb(0.000000%,0.000000%,0.000000%); stroke-width: 0.500000;stroke-linecap: round;stroke-linejoin: round;stroke-miterlimit: 10.000000;fill: none;"></path>
  <path d="M95.000076 52.500153C95.000076 42.554092,91.048431 33.016586,84.016037 25.984192C76.983643 18.951797,67.446136 15.000153,57.500076 15.000153C47.554016 15.000153,38.016510 18.951797,30.984116 25.984192C23.951721 33.016586,20.000076 42.554092,20.000076 52.500153C20.000076 62.446213,23.951721 71.983719,30.984116 79.016113C38.016510 86.048508,47.554016 90.000153,57.500076 90.000153C67.446136 90.000153,76.983643 86.048508,84.016037 79.016113C91.048431 71.983719,95.000076 62.446213,95.000076 52.500153Z" style="stroke:rgb(0.000000%,0.000000%,0.000000%); stroke-width: 0.500000;stroke-linecap: round;stroke-linejoin: round;stroke-miterlimit: 10.000000;fill: none;"></path>
  <path d="M95.000076 52.500153C95.000076 42.554092,91.048431 33.016586,84.016037 25.984192C76.983643 18.951797,67.446136 15.000153,57.500076 15.000153C47.554016 15.000153,38.016510 18.951797,30.984116 25.984192C23.951721 33.016586,20.000076 42.554092,20.000076 52.500153" style="stroke:rgb(100.000000%,0.000000%,0.000000%); stroke-width: 1.500000;stroke-linecap: round;stroke-linejoin: round;stroke-miterlimit: 10.000000;fill: none;"></path>
  <path d="M97.126068 52.500153C97.126068 51.936279,96.902023 51.395569,96.503342 50.996887C96.104660 50.598206,95.563950 50.374161,95.000076 50.374161C94.436203 50.374161,93.895493 50.598206,93.496811 50.996887C93.098129 51.395569,92.874084 51.936279,92.874084 52.500153C92.874084 53.064026,93.098129 53.604736,93.496811 54.003418C93.895493 54.402100,94.436203 54.626144,95.000076 54.626144C95.563950 54.626144,96.104660 54.402100,96.503342 54.003418C96.902023 53.604736,97.126068 53.064026,97.126068 52.500153Z" style="fill: rgb(100.000000%,100.000000%,100.000000%);stroke: none;"></path>
  <path d="M97.126068 52.500153C97.126068 51.936279,96.902023 51.395569,96.503342 50.996887C96.104660 50.598206,95.563950 50.374161,95.000076 50.374161C94.436203 50.374161,93.895493 50.598206,93.496811 50.996887C93.098129 51.395569,92.874084 51.936279,92.874084 52.500153C92.874084 53.064026,93.098129 53.604736,93.496811 54.003418C93.895493 54.402100,94.436203 54.626144,95.000076 54.626144C95.563950 54.626144,96.104660 54.402100,96.503342 54.003418C96.902023 53.604736,97.126068 53.064026,97.126068 52.500153Z" style="stroke:rgb(100.000000%,0.000000%,0.000000%); stroke-width: 0.500000;stroke-linecap: round;stroke-linejoin: round;stroke-miterlimit: 10.000000;fill: none;"></path>
  <g transform="translate(98.000076 55.710342)" style="fill: rgb(0.000000%,0.000000%,0.000000%);">
    <use xlink:href="#GLYPHcmr10_116"></use>
    <use xlink:href="#GLYPHcmr10_32" x="3.888963"></use>
    <use xlink:href="#GLYPHcmr10_61" x="6.666793"></use>
    <use xlink:href="#GLYPHcmr10_32" x="14.444718"></use>
    <use xlink:href="#GLYPHcmr10_48" x="17.222549"></use>
  </g>
  <path d="M86.142029 25.984192C86.142029 25.420319,85.917984 24.879608,85.519302 24.480927C85.120621 24.082245,84.579910 23.858200,84.016037 23.858200C83.452164 23.858200,82.911453 24.082245,82.512772 24.480927C82.114090 24.879608,81.890045 25.420319,81.890045 25.984192C81.890045 26.548065,82.114090 27.088776,82.512772 27.487457C82.911453 27.886139,83.452164 28.110184,84.016037 28.110184C84.579910 28.110184,85.120621 27.886139,85.519302 27.487457C85.917984 27.088776,86.142029 26.548065,86.142029 25.984192Z" style="fill: rgb(100.000000%,100.000000%,100.000000%);stroke: none;"></path>
  <path d="M86.142029 25.984192C86.142029 25.420319,85.917984 24.879608,85.519302 24.480927C85.120621 24.082245,84.579910 23.858200,84.016037 23.858200C83.452164 23.858200,82.911453 24.082245,82.512772 24.480927C82.114090 24.879608,81.890045 25.420319,81.890045 25.984192C81.890045 26.548065,82.114090 27.088776,82.512772 27.487457C82.911453 27.886139,83.452164 28.110184,84.016037 28.110184C84.579910 28.110184,85.120621 27.886139,85.519302 27.487457C85.917984 27.088776,86.142029 26.548065,86.142029 25.984192Z" style="stroke:rgb(100.000000%,0.000000%,0.000000%); stroke-width: 0.500000;stroke-linecap: round;stroke-linejoin: round;stroke-miterlimit: 10.000000;fill: none;"></path>
  <g transform="translate(87.016037 29.194382)" style="fill: rgb(0.000000%,0.000000%,0.000000%);">
    <use xlink:href="#GLYPHcmr10_116"></use>
    <use xlink:href="#GLYPHcmr10_32" x="3.888963"></use>
    <use xlink:href="#GLYPHcmr10_61" x="6.666793"></use>
    <use xlink:href="#GLYPHcmr10_32" x="14.444718"></use>
    <use xlink:href="#GLYPHcmr10_49" x="17.222549"></use>
  </g>
  <path d="M59.626068 15.000153C59.626068 14.436279,59.402023 13.895569,59.003342 13.496887C58.604660 13.098206,58.063950 12.874161,57.500076 12.874161C56.936203 12.874161,56.395493 13.098206,55.996811 13.496887C55.598129 13.895569,55.374084 14.436279,55.374084 15.000153C55.374084 15.564026,55.598129 16.104736,55.996811 16.503418C56.395493 16.902100,56.936203 17.126144,57.500076 17.126144C58.063950 17.126144,58.604660 16.902100,59.003342 16.503418C59.402023 16.104736,59.626068 15.564026,59.626068 15.000153Z" style="fill: rgb(100.000000%,100.000000%,100.000000%);stroke: none;"></path>
  <path d="M59.626068 15.000153C59.626068 14.436279,59.402023 13.895569,59.003342 13.496887C58.604660 13.098206,58.063950 12.874161,57.500076 12.874161C56.936203 12.874161,56.395493 13.098206,55.996811 13.496887C55.598129 13.895569,55.374084 14.436279,55.374084 15.000153C55.374084 15.564026,55.598129 16.104736,55.996811 16.503418C56.395493 16.902100,56.936203 17.126144,57.500076 17.126144C58.063950 17.126144,58.604660 16.902100,59.003342 16.503418C59.402023 16.104736,59.626068 15.564026,59.626068 15.000153Z" style="stroke:rgb(100.000000%,0.000000%,0.000000%); stroke-width: 0.500000;stroke-linecap: round;stroke-linejoin: round;stroke-miterlimit: 10.000000;fill: none;"></path>
  <g transform="translate(30.241074 10.062958)" style="fill: rgb(0.000000%,0.000000%,0.000000%);">
    <use xlink:href="#GLYPHcmr10_112"></use>
    <use xlink:href="#GLYPHcmr10_111" x="5.555661"></use>
    <use xlink:href="#GLYPHcmr10_105" x="10.555756"></use>
    <use xlink:href="#GLYPHcmr10_110" x="13.333586"></use>
    <use xlink:href="#GLYPHcmr10_116" x="18.889247"></use>
    <use xlink:href="#GLYPHcmr10_32" x="22.778210"></use>
    <use xlink:href="#GLYPHcmr10_50" x="25.556040"></use>
    <use xlink:href="#GLYPHcmr10_32" x="30.556135"></use>
    <use xlink:href="#GLYPHcmr10_111" x="33.333965"></use>
    <use xlink:href="#GLYPHcmr10_102" x="38.334060"></use>
    <use xlink:href="#GLYPHcmr10_32" x="41.389681"></use>
    <use xlink:href="#GLYPHcmr10_112" x="44.167512"></use>
    <use xlink:href="#GLYPHcmr10_48" x="49.723173"></use>
  </g>
  <path d="M33.110107 25.984192C33.110107 25.420319,32.886063 24.879608,32.487381 24.480927C32.088699 24.082245,31.547989 23.858200,30.984116 23.858200C30.420242 23.858200,29.879532 24.082245,29.480850 24.480927C29.082169 24.879608,28.858124 25.420319,28.858124 25.984192C28.858124 26.548065,29.082169 27.088776,29.480850 27.487457C29.879532 27.886139,30.420242 28.110184,30.984116 28.110184C31.547989 28.110184,32.088699 27.886139,32.487381 27.487457C32.886063 27.088776,33.110107 26.548065,33.110107 25.984192Z" style="fill: rgb(100.000000%,100.000000%,100.000000%);stroke: none;"></path>
  <path d="M33.110107 25.984192C33.110107 25.420319,32.886063 24.879608,32.487381 24.480927C32.088699 24.082245,31.547989 23.858200,30.984116 23.858200C30.420242 23.858200,29.879532 24.082245,29.480850 24.480927C29.082169 24.879608,28.858124 25.420319,28.858124 25.984192C28.858124 26.548065,29.082169 27.088776,29.480850 27.487457C29.879532 27.886139,30.420242 28.110184,30.984116 28.110184C31.547989 28.110184,32.088699 27.886139,32.487381 27.487457C32.886063 27.088776,33.110107 26.548065,33.110107 25.984192Z" style="stroke:rgb(100.000000%,0.000000%,0.000000%); stroke-width: 0.500000;stroke-linecap: round;stroke-linejoin: round;stroke-miterlimit: 10.000000;fill: none;"></path>
  <g transform="translate(5.844833 29.194382)" style="fill: rgb(0.000000%,0.000000%,0.000000%);">
    <use xlink:href="#GLYPHcmr10_116"></use>
    <use xlink:href="#GLYPHcmr10_32" x="3.888963"></use>
    <use xlink:href="#GLYPHcmr10_61" x="6.666793"></use>
    <use xlink:href="#GLYPHcmr10_32" x="14.444718"></use>
    <use xlink:href="#GLYPHcmr10_51" x="17.222549"></use>
  </g>
  <path d="M22.126068 52.500153C22.126068 51.936279,21.902023 51.395569,21.503342 50.996887C21.104660 50.598206,20.563950 50.374161,20.000076 50.374161C19.436203 50.374161,18.895493 50.598206,18.496811 50.996887C18.098129 51.395569,17.874084 51.936279,17.874084 52.500153C17.874084 53.064026,18.098129 53.604736,18.496811 54.003418C18.895493 54.402100,19.436203 54.626144,20.000076 54.626144C20.563950 54.626144,21.104660 54.402100,21.503342 54.003418C21.902023 53.604736,22.126068 53.064026,22.126068 52.500153Z" style="fill: rgb(100.000000%,100.000000%,100.000000%);stroke: none;"></path>
  <path d="M22.126068 52.500153C22.126068 51.936279,21.902023 51.395569,21.503342 50.996887C21.104660 50.598206,20.563950 50.374161,20.000076 50.374161C19.436203 50.374161,18.895493 50.598206,18.496811 50.996887C18.098129 51.395569,17.874084 51.936279,17.874084 52.500153C17.874084 53.064026,18.098129 53.604736,18.496811 54.003418C18.895493 54.402100,19.436203 54.626144,20.000076 54.626144C20.563950 54.626144,21.104660 54.402100,21.503342 54.003418C21.902023 53.604736,22.126068 53.064026,22.126068 52.500153Z" style="stroke:rgb(100.000000%,0.000000%,0.000000%); stroke-width: 0.500000;stroke-linecap: round;stroke-linejoin: round;stroke-miterlimit: 10.000000;fill: none;"></path>
  <g transform="translate(12.018738 55.710342)" style="fill: rgb(0.000000%,0.000000%,0.000000%);">
    <use xlink:href="#GLYPHcmr10_52"></use>
  </g>
  <path d="M33.110107 79.016113C33.110107 78.452240,32.886063 77.911530,32.487381 77.512848C32.088699 77.114166,31.547989 76.890121,30.984116 76.890121C30.420242 76.890121,29.879532 77.114166,29.480850 77.512848C29.082169 77.911530,28.858124 78.452240,28.858124 79.016113C28.858124 79.579987,29.082169 80.120697,29.480850 80.519379C29.879532 80.918060,30.420242 81.142105,30.984116 81.142105C31.547989 81.142105,32.088699 80.918060,32.487381 80.519379C32.886063 80.120697,33.110107 79.579987,33.110107 79.016113Z" style="fill: rgb(100.000000%,100.000000%,100.000000%);stroke: none;"></path>
  <path d="M33.110107 79.016113C33.110107 78.452240,32.886063 77.911530,32.487381 77.512848C32.088699 77.114166,31.547989 76.890121,30.984116 76.890121C30.420242 76.890121,29.879532 77.114166,29.480850 77.512848C29.082169 77.911530,28.858124 78.452240,28.858124 79.016113C28.858124 79.579987,29.082169 80.120697,29.480850 80.519379C29.879532 80.918060,30.420242 81.142105,30.984116 81.142105C31.547989 81.142105,32.088699 80.918060,32.487381 80.519379C32.886063 80.120697,33.110107 79.579987,33.110107 79.016113Z" style="stroke:rgb(100.000000%,0.000000%,0.000000%); stroke-width: 0.500000;stroke-linecap: round;stroke-linejoin: round;stroke-miterlimit: 10.000000;fill: none;"></path>
  <g transform="translate(5.844833 82.226303)" style="fill: rgb(0.000000%,0.000000%,0.000000%);">
    <use xlink:href="#GLYPHcmr10_116"></use>
    <use xlink:href="#GLYPHcmr10_32" x="3.888963"></use>
    <use xlink:href="#GLYPHcmr10_61" x="6.666793"></use>
    <use xlink:href="#GLYPHcmr10_32" x="14.444718"></use>
    <use xlink:href="#GLYPHcmr10_53" x="17.222549"></use>
  </g>
  <path d="M59.626068 90.000153C59.626068 89.436279,59.402023 88.895569,59.003342 88.496887C58.604660 88.098206,58.063950 87.874161,57.500076 87.874161C56.936203 87.874161,56.395493 88.098206,55.996811 88.496887C55.598129 88.895569,55.374084 89.436279,55.374084 90.000153C55.374084 90.564026,55.598129 91.104736,55.996811 91.503418C56.395493 91.902100,56.936203 92.126144,57.500076 92.126144C58.063950 92.126144,58.604660 91.902100,59.003342 91.503418C59.402023 91.104736,59.626068 90.564026,59.626068 90.000153Z" style="fill: rgb(100.000000%,100.000000%,100.000000%);stroke: none;"></path>
  <path d="M59.626068 90.000153C59.626068 89.436279,59.402023 88.895569,59.003342 88.496887C58.604660 88.098206,58.063950 87.874161,57.500076 87.874161C56.936203 87.874161,56.395493 88.098206,55.996811 88.496887C55.598129 88.895569,55.374084 89.436279,55.374084 90.000153C55.374084 90.564026,55.598129 91.104736,55.996811 91.503418C56.395493 91.902100,56.936203 92.126144,57.500076 92.126144C58.063950 92.126144,58.604660 91.902100,59.003342 91.503418C59.402023 91.104736,59.626068 90.564026,59.626068 90.000153Z" style="stroke:rgb(100.000000%,0.000000%,0.000000%); stroke-width: 0.500000;stroke-linecap: round;stroke-linejoin: round;stroke-miterlimit: 10.000000;fill: none;"></path>
  <g transform="translate(50.418747 87.900162)" style="fill: rgb(0.000000%,0.000000%,0.000000%);">
    <use xlink:href="#GLYPHcmr10_54"></use>
  </g>
  <path d="M86.142029 79.016113C86.142029 78.452240,85.917984 77.911530,85.519302 77.512848C85.120621 77.114166,84.579910 76.890121,84.016037 76.890121C83.452164 76.890121,82.911453 77.114166,82.512772 77.512848C82.114090 77.911530,81.890045 78.452240,81.890045 79.016113C81.890045 79.579987,82.114090 80.120697,82.512772 80.519379C82.911453 80.918060,83.452164 81.142105,84.016037 81.142105C84.579910 81.142105,85.120621 80.918060,85.519302 80.519379C85.917984 80.120697,86.142029 79.579987,86.142029 79.016113Z" style="fill: rgb(100.000000%,100.000000%,100.000000%);stroke: none;"></path>
  <path d="M86.142029 79.016113C86.142029 78.452240,85.917984 77.911530,85.519302 77.512848C85.120621 77.114166,84.579910 76.890121,84.016037 76.890121C83.452164 76.890121,82.911453 77.114166,82.512772 77.512848C82.114090 77.911530,81.890045 78.452240,81.890045 79.016113C81.890045 79.579987,82.114090 80.120697,82.512772 80.519379C82.911453 80.918060,83.452164 81.142105,84.016037 81.142105C84.579910 81.142105,85.120621 80.918060,85.519302 80.519379C85.917984 80.120697,86.142029 79.579987,86.142029 79.016113Z" style="stroke:rgb(100.000000%,0.000000%,0.000000%); stroke-width: 0.500000;stroke-linecap: round;stroke-linejoin: round;stroke-miterlimit: 10.000000;fill: none;"></path>
  <g transform="translate(87.016037 82.226303)" style="fill: rgb(0.000000%,0.000000%,0.000000%);">
    <use xlink:href="#GLYPHcmr10_116"></use>
    <use xlink:href="#GLYPHcmr10_32" x="3.888963"></use>
    <use xlink:href="#GLYPHcmr10_61" x="6.666793"></use>
    <use xlink:href="#GLYPHcmr10_32" x="14.444718"></use>
    <use xlink:href="#GLYPHcmr10_55" x="17.222549"></use>
  </g>
  <g transform="translate(52.241989 48.491745)" style="fill: rgb(0.000000%,0.000000%,0.000000%);">
    <use xlink:href="#GLYPHcmr10_112"></use>
    <use xlink:href="#GLYPHcmr10_48" x="5.555661"></use>
  </g>
  <g transform="translate(28.442261 61.240814)" style="fill: rgb(0.000000%,0.000000%,0.000000%);">
    <use xlink:href="#GLYPHcmr10_108"></use>
    <use xlink:href="#GLYPHcmr10_101" x="2.777830"></use>
    <use xlink:href="#GLYPHcmr10_110" x="7.222359"></use>
    <use xlink:href="#GLYPHcmr10_103" x="12.778020"></use>
    <use xlink:href="#GLYPHcmr10_116" x="17.778115"></use>
    <use xlink:href="#GLYPHcmr10_104" x="21.667078"></use>
    <use xlink:href="#GLYPHcmr10_40" x="27.222738"></use>
    <use xlink:href="#GLYPHcmr10_112" x="31.111701"></use>
    <use xlink:href="#GLYPHcmr10_48" x="36.667362"></use>
    <use xlink:href="#GLYPHcmr10_41" x="41.667457"></use>
    <use xlink:href="#GLYPHcmr10_61" x="45.556419"></use>
    <use xlink:href="#GLYPHcmr10_56" x="53.334345"></use>
  </g>
  <path d="M30.983536 161.516388C33.327850 163.860703,38.370117 163.314468,45.000320 159.999359C51.630524 156.684250,59.306000 150.871628,66.338928 143.838699C73.371857 136.805771,79.184479 129.130295,82.499588 122.500092C85.814697 115.869888,86.360931 110.827621,84.016617 108.483307C81.672302 106.138992,76.630035 106.685226,69.999832 110.000336C63.369629 113.315445,55.694153 119.128067,48.661224 126.160995C41.628296 133.193924,35.815674 140.869400,32.500565 147.499603C29.185455 154.129807,28.639221 159.172073,30.983536 161.516388Z" style="stroke:rgb(0.000000%,0.000000%,0.000000%); stroke-width: 0.500000;stroke-linecap: round;stroke-linejoin: round;stroke-miterlimit: 10.000000;fill: none;"></path>
  <path d="M30.983536 161.516388C33.327850 163.860703,38.370117 163.314468,45.000320 159.999359C51.630524 156.684250,59.306000 150.871628,66.338928 143.838699C73.371857 136.805771,79.184479 129.130295,82.499588 122.500092C85.814697 115.869888,86.360931 110.827621,84.016617 108.483307" style="stroke:rgb(100.000000%,0.000000%,0.000000%); stroke-width: 1.500000;stroke-linecap: round;stroke-linejoin: round;stroke-miterlimit: 10.000000;fill: none;"></path>
  <path d="M33.109528 161.516388C33.109528 160.952515,32.885483 160.411804,32.486801 160.013123C32.088120 159.614441,31.547409 159.390396,30.983536 159.390396C30.419662 159.390396,29.878952 159.614441,29.480270 160.013123C29.081589 160.411804,28.857544 160.952515,28.857544 161.516388C28.857544 162.080261,29.081589 162.620972,29.480270 163.019653C29.878952 163.418335,30.419662 163.642380,30.983536 163.642380C31.547409 163.642380,32.088120 163.418335,32.486801 163.019653C32.885483 162.620972,33.109528 162.080261,33.109528 161.516388Z" style="fill: rgb(100.000000%,100.000000%,100.000000%);stroke: none;"></path>
  <path d="M33.109528 161.516388C33.109528 160.952515,32.885483 160.411804,32.486801 160.013123C32.088120 159.614441,31.547409 159.390396,30.983536 159.390396C30.419662 159.390396,29.878952 159.614441,29.480270 160.013123C29.081589 160.411804,28.857544 160.952515,28.857544 161.516388C28.857544 162.080261,29.081589 162.620972,29.480270 163.019653C29.878952 163.418335,30.419662 163.642380,30.983536 163.642380C31.547409 163.642380,32.088120 163.418335,32.486801 163.019653C32.885483 162.620972,33.109528 162.080261,33.109528 161.516388Z" style="stroke:rgb(100.000000%,0.000000%,0.000000%); stroke-width: 0.500000;stroke-linecap: round;stroke-linejoin: round;stroke-miterlimit: 10.000000;fill: none;"></path>
  <g transform="translate(6.744263 170.036743)" style="fill: rgb(0.000000%,0.000000%,0.000000%);">
    <use xlink:href="#GLYPHcmr10_116"></use>
    <use xlink:href="#GLYPHcmr10_32" x="3.888963"></use>
    <use xlink:href="#GLYPHcmr10_61" x="6.666793"></use>
    <use xlink:href="#GLYPHcmr10_32" x="14.444718"></use>
    <use xlink:href="#GLYPHcmr10_48" x="17.222549"></use>
  </g>
  <path d="M47.126312 159.999359C47.126312 159.435486,46.902267 158.894775,46.503586 158.496094C46.104904 158.097412,45.564194 157.873367,45.000320 157.873367C44.436447 157.873367,43.895737 158.097412,43.497055 158.496094C43.098373 158.894775,42.874329 159.435486,42.874329 159.999359C42.874329 160.563232,43.098373 161.103943,43.497055 161.502625C43.895737 161.901306,44.436447 162.125351,45.000320 162.125351C45.564194 162.125351,46.104904 161.901306,46.503586 161.502625C46.902267 161.103943,47.126312 160.563232,47.126312 159.999359Z" style="fill: rgb(100.000000%,100.000000%,100.000000%);stroke: none;"></path>
  <path d="M47.126312 159.999359C47.126312 159.435486,46.902267 158.894775,46.503586 158.496094C46.104904 158.097412,45.564194 157.873367,45.000320 157.873367C44.436447 157.873367,43.895737 158.097412,43.497055 158.496094C43.098373 158.894775,42.874329 159.435486,42.874329 159.999359C42.874329 160.563232,43.098373 161.103943,43.497055 161.502625C43.895737 161.901306,44.436447 162.125351,45.000320 162.125351C45.564194 162.125351,46.104904 161.901306,46.503586 161.502625C46.902267 161.103943,47.126312 160.563232,47.126312 159.999359Z" style="stroke:rgb(100.000000%,0.000000%,0.000000%); stroke-width: 0.500000;stroke-linecap: round;stroke-linejoin: round;stroke-miterlimit: 10.000000;fill: none;"></path>
  <g transform="translate(47.100311 169.017853)" style="fill: rgb(0.000000%,0.000000%,0.000000%);">
    <use xlink:href="#GLYPHcmr10_116"></use>
    <use xlink:href="#GLYPHcmr10_32" x="3.888963"></use>
    <use xlink:href="#GLYPHcmr10_61" x="6.666793"></use>
    <use xlink:href="#GLYPHcmr10_32" x="14.444718"></use>
    <use xlink:href="#GLYPHcmr10_49" x="17.222549"></use>
    <use xlink:href="#GLYPHcmr10_32" x="22.222644"></use>
    <use xlink:href="#GLYPHcmr10_45" x="25.000474"></use>
    <use xlink:href="#GLYPHcmr10_32" x="28.333871"></use>
    <use xlink:href="#GLYPHcmr10_112" x="31.111701"></use>
    <use xlink:href="#GLYPHcmr10_111" x="36.667362"></use>
    <use xlink:href="#GLYPHcmr10_105" x="41.667457"></use>
    <use xlink:href="#GLYPHcmr10_110" x="44.445287"></use>
    <use xlink:href="#GLYPHcmr10_116" x="50.000948"></use>
    <use xlink:href="#GLYPHcmr10_32" x="53.889911"></use>
    <use xlink:href="#GLYPHcmr10_49" x="56.667741"></use>
    <use xlink:href="#GLYPHcmr10_32" x="61.667836"></use>
    <use xlink:href="#GLYPHcmr10_111" x="64.445667"></use>
    <use xlink:href="#GLYPHcmr10_102" x="69.445761"></use>
    <use xlink:href="#GLYPHcmr10_32" x="72.501382"></use>
    <use xlink:href="#GLYPHcmr10_112" x="75.279213"></use>
    <use xlink:href="#GLYPHcmr10_49" x="80.834874"></use>
  </g>
  <path d="M68.464920 143.838699C68.464920 143.274826,68.240875 142.734116,67.842194 142.335434C67.443512 141.936752,66.902802 141.712708,66.338928 141.712708C65.775055 141.712708,65.234344 141.936752,64.835663 142.335434C64.436981 142.734116,64.212936 143.274826,64.212936 143.838699C64.212936 144.402573,64.436981 144.943283,64.835663 145.341965C65.234344 145.740646,65.775055 145.964691,66.338928 145.964691C66.902802 145.964691,67.443512 145.740646,67.842194 145.341965C68.240875 144.943283,68.464920 144.402573,68.464920 143.838699Z" style="fill: rgb(100.000000%,100.000000%,100.000000%);stroke: none;"></path>
  <path d="M68.464920 143.838699C68.464920 143.274826,68.240875 142.734116,67.842194 142.335434C67.443512 141.936752,66.902802 141.712708,66.338928 141.712708C65.775055 141.712708,65.234344 141.936752,64.835663 142.335434C64.436981 142.734116,64.212936 143.274826,64.212936 143.838699C64.212936 144.402573,64.436981 144.943283,64.835663 145.341965C65.234344 145.740646,65.775055 145.964691,66.338928 145.964691C66.902802 145.964691,67.443512 145.740646,67.842194 145.341965C68.240875 144.943283,68.464920 144.402573,68.464920 143.838699Z" style="stroke:rgb(100.000000%,0.000000%,0.000000%); stroke-width: 0.500000;stroke-linecap: round;stroke-linejoin: round;stroke-miterlimit: 10.000000;fill: none;"></path>
  <g transform="translate(68.438919 152.359055)" style="fill: rgb(0.000000%,0.000000%,0.000000%);">
    <use xlink:href="#GLYPHcmr10_116"></use>
    <use xlink:href="#GLYPHcmr10_32" x="3.888963"></use>
    <use xlink:href="#GLYPHcmr10_61" x="6.666793"></use>
    <use xlink:href="#GLYPHcmr10_32" x="14.444718"></use>
    <use xlink:href="#GLYPHcmr10_50" x="17.222549"></use>
  </g>
  <path d="M84.625580 122.500092C84.625580 121.936218,84.401535 121.395508,84.002853 120.996826C83.604172 120.598145,83.063461 120.374100,82.499588 120.374100C81.935715 120.374100,81.395004 120.598145,80.996323 120.996826C80.597641 121.395508,80.373596 121.936218,80.373596 122.500092C80.373596 123.063965,80.597641 123.604675,80.996323 124.003357C81.395004 124.402039,81.935715 124.626083,82.499588 124.626083C83.063461 124.626083,83.604172 124.402039,84.002853 124.003357C84.401535 123.604675,84.625580 123.063965,84.625580 122.500092Z" style="fill: rgb(100.000000%,100.000000%,100.000000%);stroke: none;"></path>
  <path d="M84.625580 122.500092C84.625580 121.936218,84.401535 121.395508,84.002853 120.996826C83.604172 120.598145,83.063461 120.374100,82.499588 120.374100C81.935715 120.374100,81.395004 120.598145,80.996323 120.996826C80.597641 121.395508,80.373596 121.936218,80.373596 122.500092C80.373596 123.063965,80.597641 123.604675,80.996323 124.003357C81.395004 124.402039,81.935715 124.626083,82.499588 124.626083C83.063461 124.626083,83.604172 124.402039,84.002853 124.003357C84.401535 123.604675,84.625580 123.063965,84.625580 122.500092Z" style="stroke:rgb(100.000000%,0.000000%,0.000000%); stroke-width: 0.500000;stroke-linecap: round;stroke-linejoin: round;stroke-miterlimit: 10.000000;fill: none;"></path>
  <g transform="translate(84.599579 131.020447)" style="fill: rgb(0.000000%,0.000000%,0.000000%);">
    <use xlink:href="#GLYPHcmr10_116"></use>
    <use xlink:href="#GLYPHcmr10_32" x="3.888963"></use>
    <use xlink:href="#GLYPHcmr10_61" x="6.666793"></use>
    <use xlink:href="#GLYPHcmr10_32" x="14.444718"></use>
    <use xlink:href="#GLYPHcmr10_51" x="17.222549"></use>
  </g>
  <path d="M86.142609 108.483307C86.142609 107.919434,85.918564 107.378723,85.519882 106.980042C85.121201 106.581360,84.580490 106.357315,84.016617 106.357315C83.452744 106.357315,82.912033 106.581360,82.513351 106.980042C82.114670 107.378723,81.890625 107.919434,81.890625 108.483307C81.890625 109.047180,82.114670 109.587891,82.513351 109.986572C82.912033 110.385254,83.452744 110.609299,84.016617 110.609299C84.580490 110.609299,85.121201 110.385254,85.519882 109.986572C85.918564 109.587891,86.142609 109.047180,86.142609 108.483307Z" style="fill: rgb(100.000000%,100.000000%,100.000000%);stroke: none;"></path>
  <path d="M86.142609 108.483307C86.142609 107.919434,85.918564 107.378723,85.519882 106.980042C85.121201 106.581360,84.580490 106.357315,84.016617 106.357315C83.452744 106.357315,82.912033 106.581360,82.513351 106.980042C82.114670 107.378723,81.890625 107.919434,81.890625 108.483307C81.890625 109.047180,82.114670 109.587891,82.513351 109.986572C82.912033 110.385254,83.452744 110.609299,84.016617 110.609299C84.580490 110.609299,85.121201 110.385254,85.519882 109.986572C85.918564 109.587891,86.142609 109.047180,86.142609 108.483307Z" style="stroke:rgb(100.000000%,0.000000%,0.000000%); stroke-width: 0.500000;stroke-linecap: round;stroke-linejoin: round;stroke-miterlimit: 10.000000;fill: none;"></path>
  <g transform="translate(86.116608 106.383316)" style="fill: rgb(0.000000%,0.000000%,0.000000%);">
    <use xlink:href="#GLYPHcmr10_116"></use>
    <use xlink:href="#GLYPHcmr10_32" x="3.888963"></use>
    <use xlink:href="#GLYPHcmr10_61" x="6.666793"></use>
    <use xlink:href="#GLYPHcmr10_32" x="14.444718"></use>
    <use xlink:href="#GLYPHcmr10_52" x="17.222549"></use>
  </g>
  <path d="M72.125824 110.000336C72.125824 109.436462,71.901779 108.895752,71.503098 108.497070C71.104416 108.098389,70.563705 107.874344,69.999832 107.874344C69.435959 107.874344,68.895248 108.098389,68.496567 108.497070C68.097885 108.895752,67.873840 109.436462,67.873840 110.000336C67.873840 110.564209,68.097885 111.104919,68.496567 111.503601C68.895248 111.902283,69.435959 112.126328,69.999832 112.126328C70.563705 112.126328,71.104416 111.902283,71.503098 111.503601C71.901779 111.104919,72.125824 110.564209,72.125824 110.000336Z" style="fill: rgb(100.000000%,100.000000%,100.000000%);stroke: none;"></path>
  <path d="M72.125824 110.000336C72.125824 109.436462,71.901779 108.895752,71.503098 108.497070C71.104416 108.098389,70.563705 107.874344,69.999832 107.874344C69.435959 107.874344,68.895248 108.098389,68.496567 108.497070C68.097885 108.895752,67.873840 109.436462,67.873840 110.000336C67.873840 110.564209,68.097885 111.104919,68.496567 111.503601C68.895248 111.902283,69.435959 112.126328,69.999832 112.126328C70.563705 112.126328,71.104416 111.902283,71.503098 111.503601C71.901779 111.104919,72.125824 110.564209,72.125824 110.000336Z" style="stroke:rgb(100.000000%,0.000000%,0.000000%); stroke-width: 0.500000;stroke-linecap: round;stroke-linejoin: round;stroke-miterlimit: 10.000000;fill: none;"></path>
  <g transform="translate(45.760559 107.900345)" style="fill: rgb(0.000000%,0.000000%,0.000000%);">
    <use xlink:href="#GLYPHcmr10_116"></use>
    <use xlink:href="#GLYPHcmr10_32" x="3.888963"></use>
    <use xlink:href="#GLYPHcmr10_61" x="6.666793"></use>
    <use xlink:href="#GLYPHcmr10_32" x="14.444718"></use>
    <use xlink:href="#GLYPHcmr10_53" x="17.222549"></use>
  </g>
  <path d="M50.787216 126.160995C50.787216 125.597122,50.563171 125.056412,50.164490 124.657730C49.765808 124.259048,49.225098 124.035004,48.661224 124.035004C48.097351 124.035004,47.556641 124.259048,47.157959 124.657730C46.759277 125.056412,46.535233 125.597122,46.535233 126.160995C46.535233 126.724869,46.759277 127.265579,47.157959 127.664261C47.556641 128.062943,48.097351 128.286987,48.661224 128.286987C49.225098 128.286987,49.765808 128.062943,50.164490 127.664261C50.563171 127.265579,50.787216 126.724869,50.787216 126.160995Z" style="fill: rgb(100.000000%,100.000000%,100.000000%);stroke: none;"></path>
  <path d="M50.787216 126.160995C50.787216 125.597122,50.563171 125.056412,50.164490 124.657730C49.765808 124.259048,49.225098 124.035004,48.661224 124.035004C48.097351 124.035004,47.556641 124.259048,47.157959 124.657730C46.759277 125.056412,46.535233 125.597122,46.535233 126.160995C46.535233 126.724869,46.759277 127.265579,47.157959 127.664261C47.556641 128.062943,48.097351 128.286987,48.661224 128.286987C49.225098 128.286987,49.765808 128.062943,50.164490 127.664261C50.563171 127.265579,50.787216 126.724869,50.787216 126.160995Z" style="stroke:rgb(100.000000%,0.000000%,0.000000%); stroke-width: 0.500000;stroke-linecap: round;stroke-linejoin: round;stroke-miterlimit: 10.000000;fill: none;"></path>
  <g transform="translate(24.421951 124.061005)" style="fill: rgb(0.000000%,0.000000%,0.000000%);">
    <use xlink:href="#GLYPHcmr10_116"></use>
    <use xlink:href="#GLYPHcmr10_32" x="3.888963"></use>
    <use xlink:href="#GLYPHcmr10_61" x="6.666793"></use>
    <use xlink:href="#GLYPHcmr10_32" x="14.444718"></use>
    <use xlink:href="#GLYPHcmr10_54" x="17.222549"></use>
  </g>
  <path d="M34.626556 147.499603C34.626556 146.935730,34.402512 146.395020,34.003830 145.996338C33.605148 145.597656,33.064438 145.373611,32.500565 145.373611C31.936691 145.373611,31.395981 145.597656,30.997299 145.996338C30.598618 146.395020,30.374573 146.935730,30.374573 147.499603C30.374573 148.063477,30.598618 148.604187,30.997299 149.002869C31.395981 149.401550,31.936691 149.625595,32.500565 149.625595C33.064438 149.625595,33.605148 149.401550,34.003830 149.002869C34.402512 148.604187,34.626556 148.063477,34.626556 147.499603Z" style="fill: rgb(100.000000%,100.000000%,100.000000%);stroke: none;"></path>
  <path d="M34.626556 147.499603C34.626556 146.935730,34.402512 146.395020,34.003830 145.996338C33.605148 145.597656,33.064438 145.373611,32.500565 145.373611C31.936691 145.373611,31.395981 145.597656,30.997299 145.996338C30.598618 146.395020,30.374573 146.935730,30.374573 147.499603C30.374573 148.063477,30.598618 148.604187,30.997299 149.002869C31.395981 149.401550,31.936691 149.625595,32.500565 149.625595C33.064438 149.625595,33.605148 149.401550,34.003830 149.002869C34.402512 148.604187,34.626556 148.063477,34.626556 147.499603Z" style="stroke:rgb(100.000000%,0.000000%,0.000000%); stroke-width: 0.500000;stroke-linecap: round;stroke-linejoin: round;stroke-miterlimit: 10.000000;fill: none;"></path>
  <g transform="translate(8.261292 145.399612)" style="fill: rgb(0.000000%,0.000000%,0.000000%);">
    <use xlink:href="#GLYPHcmr10_116"></use>
    <use xlink:href="#GLYPHcmr10_32" x="3.888963"></use>
    <use xlink:href="#GLYPHcmr10_61" x="6.666793"></use>
    <use xlink:href="#GLYPHcmr10_32" x="14.444718"></use>
    <use xlink:href="#GLYPHcmr10_55" x="17.222549"></use>
  </g>
  <g transform="translate(52.241989 137.241440)" style="fill: rgb(0.000000%,0.000000%,0.000000%);">
    <use xlink:href="#GLYPHcmr10_112"></use>
    <use xlink:href="#GLYPHcmr10_49" x="5.555661"></use>
  </g>
  <path d="M231.250000 87.500000C231.250000 80.869293,225.981140 74.510956,216.604614 69.822693C207.228088 65.134430,194.511414 62.500000,181.250000 62.500000C167.988586 62.500000,155.271912 65.134430,145.895386 69.822693C136.518860 74.510956,131.250000 80.869293,131.250000 87.500000C131.250000 94.130707,136.518860 100.489044,145.895386 105.177307C155.271912 109.865570,167.988586 112.500000,181.250000 112.500000C194.511414 112.500000,207.228088 109.865570,216.604614 105.177307C225.981140 100.489044,231.250000 94.130707,231.250000 87.500000Z" style="stroke:rgb(0.000000%,0.000000%,0.000000%); stroke-width: 0.500000;stroke-linecap: round;stroke-linejoin: round;stroke-miterlimit: 10.000000;fill: none;"></path>
  <path d="M231.250000 87.500000C231.250000 80.869293,225.981140 74.510956,216.604614 69.822693C207.228088 65.134430,194.511414 62.500000,181.250000 62.500000C167.988586 62.500000,155.271912 65.134430,145.895386 69.822693C136.518860 74.510956,131.250000 80.869293,131.250000 87.500000" style="stroke:rgb(100.000000%,0.000000%,0.000000%); stroke-width: 1.500000;stroke-linecap: round;stroke-linejoin: round;stroke-miterlimit: 10.000000;fill: none;"></path>
  <g transform="translate(138.742569 83.740662)" style="fill: rgb(0.000000%,0.000000%,0.000000%);">
    <use xlink:href="#GLYPHcmr10_115"></use>
    <use xlink:href="#GLYPHcmr10_117" x="3.944515"></use>
    <use xlink:href="#GLYPHcmr10_98" x="9.500176"></use>
    <use xlink:href="#GLYPHcmr10_112" x="15.055836"></use>
    <use xlink:href="#GLYPHcmr10_97" x="20.611497"></use>
    <use xlink:href="#GLYPHcmr10_116" x="25.611592"></use>
    <use xlink:href="#GLYPHcmr10_104" x="29.500555"></use>
    <use xlink:href="#GLYPHcmr10_32" x="35.056216"></use>
    <use xlink:href="#GLYPHcmr10_40" x="37.834046"></use>
    <use xlink:href="#GLYPHcmr10_48" x="41.723009"></use>
    <use xlink:href="#GLYPHcmr10_44" x="46.723104"></use>
    <use xlink:href="#GLYPHcmr10_32" x="49.500934"></use>
    <use xlink:href="#GLYPHcmr10_52" x="52.278765"></use>
    <use xlink:href="#GLYPHcmr10_41" x="57.278859"></use>
    <use xlink:href="#GLYPHcmr10_32" x="61.167822"></use>
    <use xlink:href="#GLYPHcmr10_111" x="63.945652"></use>
    <use xlink:href="#GLYPHcmr10_102" x="68.945747"></use>
    <use xlink:href="#GLYPHcmr10_32" x="72.001368"></use>
    <use xlink:href="#GLYPHcmr10_112" x="74.779199"></use>
    <use xlink:href="#GLYPHcmr10_50" x="80.334860"></use>
  </g>
  <g transform="translate(138.742569 96.240662)" style="fill: rgb(0.000000%,0.000000%,0.000000%);">
    <use xlink:href="#GLYPHcmr10_115"></use>
    <use xlink:href="#GLYPHcmr10_117" x="3.944515"></use>
    <use xlink:href="#GLYPHcmr10_98" x="9.500176"></use>
    <use xlink:href="#GLYPHcmr10_112" x="15.055836"></use>
    <use xlink:href="#GLYPHcmr10_97" x="20.611497"></use>
    <use xlink:href="#GLYPHcmr10_116" x="25.611592"></use>
    <use xlink:href="#GLYPHcmr10_104" x="29.500555"></use>
    <use xlink:href="#GLYPHcmr10_32" x="35.056216"></use>
    <use xlink:href="#GLYPHcmr10_40" x="37.834046"></use>
    <use xlink:href="#GLYPHcmr10_52" x="41.723009"></use>
    <use xlink:href="#GLYPHcmr10_44" x="46.723104"></use>
    <use xlink:href="#GLYPHcmr10_32" x="49.500934"></use>
    <use xlink:href="#GLYPHcmr10_56" x="52.278765"></use>
    <use xlink:href="#GLYPHcmr10_41" x="57.278859"></use>
    <use xlink:href="#GLYPHcmr10_32" x="61.167822"></use>
    <use xlink:href="#GLYPHcmr10_111" x="63.945652"></use>
    <use xlink:href="#GLYPHcmr10_102" x="68.945747"></use>
    <use xlink:href="#GLYPHcmr10_32" x="72.001368"></use>
    <use xlink:href="#GLYPHcmr10_112" x="74.779199"></use>
    <use xlink:href="#GLYPHcmr10_50" x="80.334860"></use>
  </g>
  <path d="M243.750000 87.500000C243.750000 65.950195,237.163925 45.285599,225.443268 30.048752C213.722610 14.811890,197.826767 6.250000,181.250000 6.250000C164.673233 6.250000,148.777390 14.811890,137.056732 30.048752C125.336075 45.285599,118.750000 65.950195,118.750000 87.500000C118.750000 109.049805,125.336075 129.714401,137.056732 144.951248C148.777390 160.188110,164.673233 168.750000,181.250000 168.750000C197.826767 168.750000,213.722610 160.188110,225.443268 144.951248C237.163925 129.714401,243.750000 109.049805,243.750000 87.500000Z" style="stroke:rgb(0.000000%,0.000000%,0.000000%); stroke-width: 0.500000;stroke-linecap: round;stroke-dasharray: 3.000000 3.000000 ;stroke-linejoin: round;stroke-miterlimit: 10.000000;fill: none;"></path>
  <g transform="translate(196.982147 23.609802)" style="fill: rgb(0.000000%,0.000000%,0.000000%);">
    <use xlink:href="#GLYPHcmr10_112"></use>
    <use xlink:href="#GLYPHcmr10_51" x="5.555661"></use>
  </g>
  <path d="M243.750000 87.500000L231.250198 87.500000" style="stroke:rgb(0.000000%,0.000000%,100.000000%); stroke-width: 1.500000;stroke-linecap: round;stroke-linejoin: round;stroke-miterlimit: 10.000000;fill: none;"></path>
  <path d="M234.945724 85.969223L231.250198 87.500000L234.945724 89.030777Z" style="stroke:rgb(0.000000%,0.000000%,100.000000%); stroke-width: 1.500000;fill: rgb(0.000000%,0.000000%,100.000000%);"></path>
  <path d="M225.443268 30.048752L199.198807 64.166565" style="stroke:rgb(0.000000%,0.000000%,100.000000%); stroke-width: 1.500000;stroke-linecap: round;stroke-linejoin: round;stroke-miterlimit: 10.000000;fill: none;"></path>
  <path d="M200.238647 60.304184L199.198807 64.166565L202.665222 62.170792Z" style="stroke:rgb(0.000000%,0.000000%,100.000000%); stroke-width: 1.500000;fill: rgb(0.000000%,0.000000%,100.000000%);"></path>
  <path d="M181.250000 6.250000L181.250000 62.499908" style="stroke:rgb(0.000000%,0.000000%,100.000000%); stroke-width: 1.500000;stroke-linecap: round;stroke-linejoin: round;stroke-miterlimit: 10.000000;fill: none;"></path>
  <path d="M179.719345 58.804688L181.250000 62.499908L182.780655 58.804688Z" style="stroke:rgb(0.000000%,0.000000%,100.000000%); stroke-width: 1.500000;fill: rgb(0.000000%,0.000000%,100.000000%);"></path>
  <path d="M137.056732 30.048752L163.301193 64.166565" style="stroke:rgb(0.000000%,0.000000%,100.000000%); stroke-width: 1.500000;stroke-linecap: round;stroke-linejoin: round;stroke-miterlimit: 10.000000;fill: none;"></path>
  <path d="M159.834778 62.170792L163.301193 64.166565L162.261353 60.304184Z" style="stroke:rgb(0.000000%,0.000000%,100.000000%); stroke-width: 1.500000;fill: rgb(0.000000%,0.000000%,100.000000%);"></path>
  <path d="M118.750000 87.500000L131.249802 87.500000" style="stroke:rgb(0.000000%,0.000000%,100.000000%); stroke-width: 1.500000;stroke-linecap: round;stroke-linejoin: round;stroke-miterlimit: 10.000000;fill: none;"></path>
  <path d="M127.554276 89.030777L131.249802 87.500000L127.554276 85.969223Z" style="stroke:rgb(0.000000%,0.000000%,100.000000%); stroke-width: 1.500000;fill: rgb(0.000000%,0.000000%,100.000000%);"></path>
  <path d="M137.056732 144.951248L163.301193 110.833435" style="stroke:rgb(0.000000%,0.000000%,100.000000%); stroke-width: 1.500000;stroke-linecap: round;stroke-linejoin: round;stroke-miterlimit: 10.000000;fill: none;"></path>
  <path d="M162.261353 114.695816L163.301193 110.833435L159.834778 112.829208Z" style="stroke:rgb(0.000000%,0.000000%,100.000000%); stroke-width: 1.500000;fill: rgb(0.000000%,0.000000%,100.000000%);"></path>
  <path d="M181.250000 168.750000L181.250000 112.500092" style="stroke:rgb(0.000000%,0.000000%,100.000000%); stroke-width: 1.500000;stroke-linecap: round;stroke-linejoin: round;stroke-miterlimit: 10.000000;fill: none;"></path>
  <path d="M182.780655 116.195312L181.250000 112.500092L179.719345 116.195312Z" style="stroke:rgb(0.000000%,0.000000%,100.000000%); stroke-width: 1.500000;fill: rgb(0.000000%,0.000000%,100.000000%);"></path>
  <path d="M225.443268 144.951248L199.198807 110.833435" style="stroke:rgb(0.000000%,0.000000%,100.000000%); stroke-width: 1.500000;stroke-linecap: round;stroke-linejoin: round;stroke-miterlimit: 10.000000;fill: none;"></path>
  <path d="M202.665222 112.829208L199.198807 110.833435L200.238647 114.695816Z" style="stroke:rgb(0.000000%,0.000000%,100.000000%); stroke-width: 1.500000;fill: rgb(0.000000%,0.000000%,100.000000%);"></path>
</svg>
